<svg xmlns="http://www.w3.org/2000/svg" viewBox="0 0 32 32"><title>vscode-new-logo</title><path d="M5.346,18.393l3.872-2.916,6.431,6.357L19.5,20.2V7.734L15.649,6.1,9.218,12.454,5.346,9.538l-1.6.533L7.69,13.965,3.75,17.859Zm10.3-7.759V17.3l-4.425-3.332ZM30,5.34V4.912L23,2V26.048L2,22.929,23,30l7-2.912V5.346h0Zm-.584.363h0V6.46L25.014,8.4l4.4-2.7Zm0,18.646h0v.678l-6.572,2.337Zm-5.833,2.357v-.83l4.609-1.286Zm1.1-1.44,4.734-2.251v.931Zm4.734-4.717h0v.734L25,22.751ZM23.581,23.13v-.848L28.2,20.828h0Zm1.231-1.541,4.6-2.294v.845Zm4.6-11.121V11.3l-4.555,1.772,4.555-2.608h0Zm0,1.242V12.6l-4.652,1.667,4.652-2.562Zm-4.341-.055L29.414,9.34v.7Zm-.264-.985,4.6-2.6v.865Zm.106-1.151,4.5-2.655V7.67ZM29.4,5.3,24.8,7.374l3.758-2.43ZM28.136,4.77l-3.28,1.419,2.689-1.665Zm-1.024-.426L24.419,5.431l2.066-1.349ZM26.021,3.89l-1.91.694,1.348-.929Zm-1.1-.457-1.219.34.675-.566Zm-1.341-.558.271.112-.271.085Zm0,.5.224-.071-.224.188Zm0,.732,1.181-.329-1.181.814Zm0,.977L25.459,4.4h0L23.581,5.63Zm0,1,2.555-1.031L23.581,6.635Zm0,.974,3.534-1.529L23.581,7.815Zm0,1.187,4.3-1.939-4.3,2.634Zm0,1.11,4.131-1.823h0L23.581,9.967Zm0,1.029L27.8,8.65l-4.219,2.378Zm0,1.06,4.3-1.617-4.3,2.294Zm0,1.078,4.734-1.759-4.734,2.71Zm0,1.365,4.346-1.69h0l-4.346,2.393Zm0,1.119,4.511-1.617-4.511,2.405Zm5.833-1.991v.841l-4.581,1.6ZM23.581,16.2l4.713-1.647L23.581,17.13Zm5.833-1.927V15.2L24.72,16.84Zm-5.833,3.271L28,16l-4.424,2.282ZM29.414,15.6v.843l-4.593,1.526ZM23.581,18.69l4.527-1.5-4.527,2.3Zm5.833-1.838v.733L25,19.089Zm-5.833,3.03,4.682-1.6h0l-4.682,2.5ZM29.414,18v.9l-4.664,1.59Zm-5.833,3.193,4.327-1.475-4.327,2.156Zm0,2.334,4.482-1.489-4.482,2.253Zm5.833-1.841v.928l-4.72,1.443ZM23.581,24.7l4.492-1.374h0l-4.492,2.135Zm-.028,2.015-2.976,1.366,1.852-1.532h0Zm-1.819-.27-2.308,1.126,1.5-1.245Zm-1.551-.23-2.188,1,1.339-1.128Zm-1.612-.24-1.666.746L18,25.895Zm-1.369-.2-1.7.7.983-.807Zm-1.6-.237-1.37.519.794-.6Zm-1.577-.234-1.111.353.624-.425Zm-1.948-.289.331.049-.74.195Zm-2.336-.094L8.4,24.47l1.609.239Zm.659-.155.441.066-.723.161Zm1.2.2-.625.373-.418-.141,1.043-.232h0Zm.057.6,1.431-.377-.843.575Zm1.221.411,1.686-.536-1,.766Zm1.268.427,1.829-.692h0l-1.129.927Zm1.265.426,1.906-.786-1.3.99Zm1.127.38,2.172-.972h0l-1.445,1.217Zm1.259.423,2.459-1.126L18.583,27.9Zm1.287.434,2.579-1.259h0l-1.828,1.511Zm1.367.46,6.661-2.37L21.381,28.84Zm2.525.851-1.1-.371,6.353-2.191h0l-3.212,1.713Zm6.438-2.864V26.7l-1.576.656,1.576-.841Zm0-.415-5.657,1.951L29.414,25.4h0Z" style="fill:#d97634"/></svg>